<?xml version="1.0" standalone="no"?>
<!DOCTYPE svg PUBLIC "-//W3C//DTD SVG 20010904//EN"
 "http://www.w3.org/TR/2001/REC-SVG-20010904/DTD/svg10.dtd">
<svg version="1.0" xmlns="http://www.w3.org/2000/svg"
 viewBox="0 0 1370 495" preserveAspectRatio="xMidYMid meet">

<g transform="translate(0.000000,495.000000) scale(0.100000,-0.100000)" fill="#000000" stroke="none">

  <!-- 1. LINHAS PRETAS DA PLANTA (Fundo - Não Bloqueia Cliques) -->
  <g id="desenho-planta" pointer-events="none">
    <path d="M1000 4540 c0 -5 -7 -10 -15 -10 -13 0 -15 -106 -15 -890 l0 -890
  -305 0 -305 0 0 70 c0 62 -2 70 -19 70 -16 0 -21 -9 -25 -52 -3 -29 -8 -637
  -12 -1350 l-6 -1298 21 0 c20 0 21 5 21 85 l0 85 1450 0 1450 0 0 55 c0 48 -2
  55 -20 55 -16 0 -20 -7 -20 -35 l0 -35 -730 0 -730 0 -2 203 -3 202 -362 3
  -363 2 0 1310 0 1311 743 -1 c408 0 1147 0 1642 0 l901 0 -4 131 -4 131 1419
  -7 c780 -4 1433 -4 1450 -1 l31 7 7 382 c3 210 9 390 11 400 4 13 -1 17 -19
  17 l-24 0 -8 -377 c-4 -208 -9 -381 -12 -385 -2 -5 -155 -8 -339 -8 l-334 0 0
  395 0 395 416 0 c390 0 415 1 412 18 -3 16 -162 17 -3151 20 -2096 1 -3147 -1
  -3147 -8z m720 -550 l0 -520 -355 0 -355 0 0 520 0 520 355 0 355 0 0 -520z
  m738 -2 l2 -518 -350 0 -350 0 0 520 0 520 348 -2 347 -3 3 -517z m752 2 l0
  -520 -355 0 -355 0 0 520 0 520 355 0 355 0 0 -520z m1760 130 l0 -390 -340 0
  -340 0 5 198 c3 108 7 279 10 380 4 173 4 182 -14 182 -17 0 -20 -11 -25 -97
  -3 -54 -9 -284 -12 -510 l-6 -413 -493 0 -493 0 -4 513 c-2 281 -2 515 0 520
  2 4 388 7 858 7 l854 0 0 -390z m750 0 l0 -390 -355 0 -355 0 0 390 0 390 355
  0 355 0 0 -390z m710 -5 l0 -395 -332 2 -333 3 -3 380 c-1 209 0 386 3 392 3
  10 79 13 335 13 l330 0 0 -395z m-5460 -2015 l0 -610 -310 0 -310 0 0 610 0
  610 310 0 310 0 0 -610z m0 -1175 l0 -525 -315 0 -315 0 0 428 c0 235 3 471 7
  525 l6 97 309 0 308 0 0 -525z m728 -342 l-3 -178 -342 -3 -343 -2 0 180 0
  180 345 0 345 0 -2 -177z"/>

    <path d="M7640 4530 c0 -18 8 -20 128 -22 l127 -3 3 -395 2 -395 1980 3 1979
  2 1 -1650 0 -1650 -330 0 -330 0 0 400 0 401 325 -3 325 -3 0 23 0 22 -912 0
  c-502 1 -1876 5 -3053 10 -1652 7 -2146 6 -2167 -3 l-28 -12 0 -422 0 -423
  -700 0 -700 0 0 35 c0 28 -4 35 -20 35 -18 0 -20 -7 -20 -55 l0 -55 1460 0
  c1291 0 1460 -2 1460 -15 0 -8 9 -15 20 -15 11 0 20 7 20 15 0 13 45 15 349
  15 270 0 350 -3 354 -12 3 -10 10 -10 28 2 19 12 84 15 342 18 227 3 317 1
  317 -7 0 -14 37 -15 45 -1 4 6 133 10 356 10 304 0 349 -2 349 -15 0 -8 9 -15
  20 -15 11 0 20 7 20 15 0 13 107 15 885 15 775 0 885 -2 885 -15 0 -20 29 -19
  36 0 5 13 135 15 1085 15 713 0 1079 3 1079 10 0 6 7 10 15 10 13 0 15 141 15
  1213 0 666 3 1256 7 1310 l6 97 -26 0 -27 0 0 -1300 0 -1300 -725 0 -725 0 0
  1475 0 1475 720 0 720 0 0 -40 c0 -33 4 -40 19 -40 18 0 19 13 25 223 4 122 8
  405 9 630 l2 407 -2877 0 c-2857 0 -2878 0 -2878 -20z m970 -395 l0 -375 -335
  0 -335 0 0 375 0 375 335 0 335 0 0 -375z m740 0 l0 -375 -350 0 -350 0 0 375
  0 375 350 0 350 0 0 -375z m1058 -2 l2 -373 -510 0 -510 0 0 375 0 375 508 -2
  507 -3 3 -372z m750 0 l2 -373 -355 0 -355 0 0 375 0 375 353 -2 352 -3 3
  -372z m702 2 l0 -375 -330 0 -330 0 0 375 0 375 330 0 330 0 0 -375z m750 5
  c0 -363 0 -370 20 -370 20 0 20 7 20 370 l0 370 350 0 350 0 0 -375 0 -375
  -725 0 -725 0 0 375 0 375 355 0 355 0 0 -370z m740 -462 c0 -24 -3 -94 -7
  -155 l-6 -113 -719 0 -718 0 0 155 0 155 725 0 725 0 0 -42z m-6892 -2855 l2
  -413 -365 0 -365 0 0 415 0 415 363 -2 362 -3 3 -412z m712 -3 l0 -410 -335 0
  -335 0 0 410 0 410 335 0 335 0 0 -410z m738 3 l-3 -408 -345 0 -345 0 -3 408
  -2 407 350 0 350 0 -2 -407z m692 2 l0 -405 -309 0 c-170 0 -316 -3 -325 -6
  -14 -6 -16 34 -16 405 l0 411 325 0 325 0 0 -405z m704 399 l46 -7 0 -398 0
  -399 -355 0 -355 0 0 405 0 405 309 0 c169 0 329 -3 355 -6z m1086 -404 l0
  -400 -500 0 -500 0 0 400 0 400 500 0 500 0 0 -400z m768 -2 l2 -398 -365 0
  -365 0 0 400 0 400 363 -2 362 -3 3 -397z"/>

    <path d="M7163 3345 c-19 -21 -18 -252 1 -271 20 -19 263 -20 289 0 15 11 17
  31 17 143 0 155 15 143 -170 142 -95 0 -128 -3 -137 -14z m267 -135 l0 -110
  -120 0 -120 0 0 110 0 110 120 0 120 0 0 -110z"/>

    <path d="M7598 3346 c-15 -11 -18 -31 -18 -136 0 -105 3 -125 18 -136 25 -20
  268 -19 288 0 22 22 20 271 -2 280 -32 12 -268 6 -286 -8z m262 -136 l0 -110
  -120 0 -120 0 0 110 0 110 120 0 120 0 0 -110z"/>

    <path d="M4240 2925 l0 -75 -500 0 -500 0 0 71 c0 62 -2 70 -17 67 -17 -3 -18
  -64 -21 -1091 -2 -1082 -2 -1087 18 -1087 20 0 20 6 20 335 l0 335 500 0 500
  0 0 -335 c0 -328 0 -335 20 -335 20 0 20 7 20 105 0 1088 0 1095 -20 1095
  -18 0 -20 -7 -20 -75z m-520 -450 l0 -335 -240 0 -240 0 0 335 0 335 240 0
  240 0 0 -335z m520 0 l0 -335 -240 0 -240 0 0 335 0 335 240 0 240 0 0 -335z
  m0 -665 l0 -290 -500 0 -500 0 0 290 0 290 500 0 500 0 0 -290z"/>

    <path d="M1488 1790 c-2 -322 0 -498 7 -502 16 -12 1235 -10 1235 2 0 6 -4 10
  -10 10 -6 0 -7 182 -3 493 l6 492 -616 0 -615 0 -4 -495z m1212 247 c0 -123
  -3 -339 -7 -480 l-6 -257 -595 0 -594 0 6 31 c3 17 6 233 6 480 l0 449 595 0
  595 0 0 -223z"/>
  </g>

  <!-- 2. SALAS CLICÁVEIS (Camada Superior) -->
  <g id="salas-clicaveis" style="pointer-events: all; cursor: pointer;">
    <!-- Open Space -->
    <rect class="room room--circulacao" data-room="a_open_space1" x="4270" y="1270" width="7600" height="2430"></rect>
    <rect class="room room--circulacao" data-room="a_open_space2" x="1000" y="400" width="2200" height="3050"></rect>

    <!-- Gabinetes Topo Esquerdo -->
    <rect class="room room--gabinete" data-room="a_tl1" x="1010" y="3470" width="710" height="1040"></rect>
    <rect class="room room--gabinete" data-room="a_tl2" x="1750" y="3470" width="700" height="1040"></rect>
    <rect class="room room--gabinete" data-room="a_tl3" x="2490" y="3470" width="710" height="1040"></rect>
    <rect class="room room--gabinete" data-room="a_tl4" x="3260" y="3460" width="1000" height="1050"></rect>

    <!-- WC -->
    <rect class="room room--gabinete" data-room="a_wc1_1" x="3240" y="2120" width="1020" height="700"></rect>

    <!-- Gabinetes Topo Centro / Direito -->
    <rect class="room room--gabinete" data-room="a_tm1" x="4280" y="3710" width="690" height="800"></rect>
    <rect class="room room--gabinete" data-room="a_tm1_b" x="5010" y="3710" width="710" height="800"></rect>
    <rect class="room room--gabinete" data-room="a_tm2" x="5750" y="3710" width="690" height="800"></rect>
    <rect class="room room--gabinete" data-room="a_tm3" x="6465" y="3710" width="690" height="800"></rect>
    <rect class="room room--gabinete" data-room="a_tm4" x="7930" y="3760" width="690" height="750"></rect>
    <rect class="room room--gabinete" data-room="a_tm5" x="8650" y="3760" width="700" height="750"></rect>

    <!-- TR5 e anexos -->
    <rect class="room room--gabinete" data-room="cabine1" x="7620" y="3100" width="240" height="220"></rect>
    <rect class="room room--gabinete" data-room="cabine2" x="7190" y="3100" width="240" height="220"></rect>

    <!-- Outros Gabinetes Topo -->
    <rect class="room room--gabinete" data-room="a_tr1" x="9390" y="3760" width="1020" height="750"></rect>
    <rect class="room room--gabinete" data-room="a_tr2" x="10450" y="3760" width="710" height="750"></rect>
    <rect class="room room--gabinete" data-room="a_tr3" x="11200" y="3760" width="675" height="750"></rect>
    <rect class="room room--gabinete" data-room="a_tr4" x="11910" y="3760" width="1450" height="750"></rect>

    <!-- Gabinetes Base -->
    <rect class="room room--gabinete" data-room="a_br1" x="350" y="1500" width="620" height="1220"></rect>
    <rect class="room room--gabinete" data-room="a_br2" x="350" y="400" width="620" height="1050"></rect>
    <rect class="room room--gabinete" data-room="a_br1_ext" x="1010" y="400" width="685" height="350"></rect>
    <rect class="room room--gabinete" data-room="a_br1_anexo" x="1500" y="1300" width="1200" height="970"></rect>
    <rect class="room room--gabinete" data-room="a_br3" x="5720" y="410" width="735" height="825"></rect>
    <rect class="room room--gabinete" data-room="a_rececao" x="4270" y="410" width="1430" height="850"></rect>
    <rect class="room room--gabinete" data-room="a_entrada" x="3240" y="410" width="1000" height="1075"></rect>
    <rect class="room room--gabinete" data-room="a_quadro_de_distribuicao" x="3240" y="1520" width="1000" height="580"></rect>
    <rect class="room room--gabinete" data-room="a_br4" x="6490" y="410" width="680" height="825"></rect>
    <rect class="room room--gabinete" data-room="a_br5" x="7210" y="410" width="680" height="825"></rect>
    <rect class="room room--gabinete" data-room="a_br6" x="7950" y="410" width="660" height="825"></rect>
    <rect class="room room--gabinete" data-room="a_br7" x="8640" y="410" width="735" height="825"></rect>
    <rect class="room room--gabinete" data-room="a_br8" x="9390" y="410" width="1000" height="825"></rect>
    <rect class="room room--gabinete" data-room="a_br7_b" x="10420" y="410" width="735" height="825"></rect>
    <rect class="room room--gabinete" data-room="a_br7_c" x="11200" y="410" width="670" height="825"></rect>
    <rect class="room room--gabinete" data-room="a_direita" x="11900" y="410" width="1450" height="2970"></rect>
  </g>

</g>
</svg>